<svg version="1.2" xmlns="http://www.w3.org/2000/svg" viewBox="0 0 375 51" width="375" height="51">
	<title>MotelHub</title>
	<defs>
		<linearGradient id="g1" x2="1" gradientUnits="userSpaceOnUse" gradientTransform="matrix(83.333,0,0,49.474,1,0)">
			<stop offset="0" stop-color="#7d141d"/>
			<stop offset="1" stop-color="#ff1e27"/>
		</linearGradient>
	</defs>
	<style>
		.s0 { fill: url(#g1) } 
		.s1 { fill: #f70313 } 
	</style>
	<path class="s0" d="m84.2 27.8c-2.7-4.1-5.8-8-8.9-11.9-4.2-5.1-8.8-10.8-14.6-14.3-3.9-2.2-8.2-1.9-12.3-0.4-1.5 0.5-2.9 1.2-4.3 2.1l-1.1 0.9c-0.6 0.5-1.3-0.4-1.8-0.7-3.1-2-7-3.5-10.7-3.4-3.4 0-5.8 1.3-8.5 3.2-5.4 4.2-9.9 9.6-14.1 15-1.7 2.2-3.4 4.5-5 6.8-0.6 0.9-2.2 2.5-1.8 3.7 3.3 9.7 10.8 20.3 22.1 20.6 6.8 0.2 13.2-2.1 20-2 6.7 0.1 13 2.5 19.7 2 10.9-0.7 18.2-11.2 21.4-20.8 0.1-0.3 0.1-0.5-0.1-0.8-1.7-2.6 0.2 0.2 0 0zm-21.9 2.1c-5.3 0-10.5-0.7-15.6-1-4.9-0.3-9.8 0.1-14.7 0.5-2.4 0.2-4.7 0.4-7.1 0.5-1.5 0-4.9 0.5-6.1-0.7-0.7-0.8 2.1-3.5 2.6-4 1.6-1.7 3.4-3.3 5.4-4.7 2.8-1.7 6.1-2.9 9.5-2.2 1.3 0.3 2.6 0.6 3.8 1.2 1 0.5 2 1.4 3.1 0.8 2.7-1.4 5.8-2.5 8.9-2.3 3.2 0.2 6.5 2.5 8.8 4.4q2.8 2.4 5 5.4c1.6 2.2-2.4 2.1-3.6 2.1z"/>
	<path class="s1" d="m116.6 6.9l13.5 32.1h0.2l13.4-32.1h8.6v42.5h-5.8v-35h-0.1l-14.3 35h-3.9l-14.3-35h-0.1v35h-5.8v-42.5zm58.6 13.3q6.3 0 10.6 4.3c4.4 4.4 4.4 6.5 4.5 10.6q0 6.3-4.4 10.6c-4.4 4.3-6.5 4.3-10.7 4.4q-6.3 0-10.7-4.3c-4.3-4.4-4.4-6.5-4.5-10.7q0-6.1 4.4-10.5c4.3-4.3 6.5-4.3 10.8-4.4zm-9.4 14.9q0 4.4 2.6 7.1c2.6 2.8 4 2.8 6.8 2.8q4.2 0 6.7-2.7c2.6-2.7 2.6-4.2 2.6-7.2q0-4.3-2.5-7.1c-2.5-2.7-4-2.7-6.9-2.8q-4.3 0-6.8 2.9c-2.5 2.8-2.5 4.2-2.5 7zm38.7-22.2v8h7.8v4.7h-7.8v13.7q0 2.7 0.8 4.2c0.8 1.5 1.6 1.5 3.3 1.5q2.4 0 3.9-0.8v4.9q-1.6 0.9-5 1-3.2 0-5-1c-1.7-1-2-1.6-2.5-2.8q-0.9-1.7-0.9-5.5v-15.2h-6.2v-4.7h6.2v-8zm27.8 7.3q6.5 0 10.1 4.1c3.7 4.1 3.7 6.5 3.7 11.3v1.5h-22.8q0 3.5 2.8 5.9c2.8 2.3 4.1 2.4 6.8 2.4q4.5 0 7.8-4.3l4.1 3.2q-4.6 5.8-12.6 5.8-6.5 0-10.5-4.2c-4-4.2-4.1-6.4-4.1-10.8q0-6.3 4.1-10.6c4.1-4.2 6.2-4.2 10.6-4.3zm8.1 12.6q-0.2-4-2.3-6.2c-2.2-2.1-3.4-2.1-6-2.1q-2.5 0-4.5 1.2c-2 1.3-2.4 1.9-3.1 3.2q-1.2 2-1.2 3.9zm18.1-28.8v45.4h-5.4v-45.4zm15.7 2.9v17.6h22v-17.6h5.8v42.5h-5.8v-19.5h-22v19.5h-5.8v-42.5zm42.8 14v17.1q0 3.3 1.7 5.2c1.8 1.8 2.8 1.8 4.7 1.8q3.8 0 5.9-2.5c2.1-2.4 2.1-3.9 2.1-6.7v-14.9h5.4v28.5h-5.4v-4.4h-0.2q-1.1 2.4-3.7 3.7c-2.6 1.4-3.6 1.4-5.6 1.4q-4.8 0-7.6-3c-2.7-2.9-2.7-4.5-2.7-7.6v-18.6zm33.3-16.9v21h0.1q1.5-2.2 4.2-3.5c2.7-1.3 3.7-1.3 5.7-1.3q6.5 0 10.5 4.2c4 4.3 4 6.4 4 10.7q0 6.5-3.9 10.7c-4 4.2-6.1 4.2-10.5 4.3q-2.9 0-5.7-1.3c-2.7-1.2-3.2-2-4.3-3.5h-0.1v4.1h-5.4v-45.4zm0 31.1q0 4.5 2.6 7.1c2.5 2.7 3.9 2.8 6.8 2.8q4.2 0 6.8-2.7c2.5-2.8 2.5-4.2 2.5-7.2q0-4.3-2.5-7.1-2.5-2.7-6.9-2.8-4.2 0-6.8 2.8c-2.5 2.8-2.5 4.3-2.5 7.1z"/>
</svg>